<?xml version="1.0" standalone="no"?>
<!DOCTYPE svg PUBLIC "-//W3C//DTD SVG 20010904//EN"
 "http://www.w3.org/TR/2001/REC-SVG-20010904/DTD/svg10.dtd">
<svg version="1.0" xmlns="http://www.w3.org/2000/svg"
 width="880.000000pt" height="565.000000pt" viewBox="0 0 880.000000 565.000000"
 preserveAspectRatio="xMidYMid meet">

<g transform="translate(0.000000,565.000000) scale(0.100000,-0.100000)"
fill="#000000" stroke="none">
<path d="M4422 5225 c11 -11 -23 -34 -50 -35 -18 0 -21 -4 -16 -24 3 -14 0
-29 -10 -39 -20 -20 -20 -27 0 -27 20 0 44 -24 44 -45 0 -13 7 -15 36 -9 22 4
45 2 58 -6 20 -10 27 -9 50 13 17 16 34 23 46 20 18 -5 19 -2 13 27 -5 25 -2
35 12 43 16 9 15 12 -16 26 -20 10 -33 24 -33 34 1 13 -6 16 -35 15 -20 -1
-52 2 -71 7 -19 4 -32 4 -28 0z m103 -60 c14 -13 25 -29 25 -34 0 -21 -45 -51
-75 -51 -61 0 -96 49 -57 82 39 34 75 35 107 3z"/>
<path d="M5399 5123 c-1 -5 -1 -15 0 -23 0 -8 -20 -25 -46 -38 -36 -18 -48
-20 -60 -11 -11 10 -18 8 -35 -8 l-20 -21 22 -7 c16 -5 20 -12 16 -28 -3 -12
-6 -30 -6 -39 0 -10 -10 -20 -25 -24 -27 -7 -29 -12 -16 -33 5 -7 17 -11 27
-7 28 8 91 -58 75 -78 -10 -12 -8 -17 9 -26 17 -9 25 -8 39 4 17 16 32 16 109
0 12 -2 22 -12 22 -20 0 -11 5 -14 16 -10 9 3 22 6 30 6 10 0 13 6 10 18 -8
25 74 68 101 53 33 -17 58 20 29 43 -9 7 -12 24 -9 49 4 31 9 37 29 37 13 0
24 6 24 13 0 20 -21 36 -37 30 -8 -3 -29 8 -48 27 -28 27 -32 36 -23 48 9 10
8 16 -3 23 -19 12 -49 11 -49 -1 0 -5 -22 -10 -50 -10 -37 0 -55 5 -70 20 -19
19 -59 28 -61 13z m147 -99 c98 -47 79 -141 -36 -175 -35 -11 -44 -9 -94 15
-47 23 -56 32 -62 62 -16 84 99 142 192 98z"/>
<path d="M3135 5026 c-16 -8 -75 -34 -130 -59 -412 -185 -785 -360 -812 -382
-21 -16 -33 -35 -33 -50 0 -13 -11 -35 -23 -47 -44 -44 -43 -94 2 -146 l20
-23 45 26 c42 24 66 26 66 5 0 -4 -20 -21 -44 -36 -25 -16 -42 -31 -38 -34 4
-3 37 -39 72 -80 81 -93 97 -107 137 -126 63 -28 97 -18 318 86 79 37 103 48
240 110 39 18 93 42 120 55 78 35 184 84 245 112 141 64 160 75 174 95 9 12
16 30 16 40 0 9 8 23 18 30 89 63 59 195 -73 323 -22 22 -52 49 -65 59 -63 50
-190 71 -255 42z m-25 -73 c0 -5 15 -24 33 -43 17 -19 73 -82 122 -140 50 -58
104 -121 122 -140 18 -19 29 -38 25 -42 -4 -4 -181 -87 -392 -183 -212 -97
-398 -183 -414 -191 -16 -7 -34 -14 -40 -14 -13 0 -321 357 -321 372 0 6 92
53 205 104 216 100 219 101 345 160 208 96 272 124 293 124 12 0 22 -3 22 -7z"/>
<path d="M2908 4823 c-32 -15 -58 -29 -58 -32 0 -3 17 -24 38 -47 20 -22 62
-69 92 -104 30 -36 69 -80 86 -99 l30 -34 62 28 c34 15 62 30 62 33 0 5 -58
78 -83 104 -11 12 -83 96 -133 156 -22 27 -24 27 -96 -5z"/>
<path d="M4000 4934 c-96 -25 -204 -52 -240 -61 -82 -19 -92 -27 -79 -60 12
-31 4 -43 -27 -43 -13 0 -24 -4 -24 -10 0 -5 5 -10 10 -10 6 0 10 -8 10 -17 0
-10 7 -27 15 -37 8 -11 15 -28 15 -38 0 -10 3 -18 8 -18 4 0 13 -15 21 -32 36
-86 44 -98 55 -89 6 4 47 16 91 25 44 9 89 21 100 26 11 5 54 16 96 25 102 22
156 41 138 49 -8 3 -4 3 9 0 35 -9 80 5 78 24 -1 10 11 20 31 27 18 6 35 13
38 16 3 3 -22 61 -55 128 -33 67 -60 126 -60 131 0 18 -53 9 -230 -36z m160
10 c0 -10 -140 -174 -148 -174 -18 -1 -262 66 -262 71 0 3 48 18 108 33 59 15
145 38 192 51 95 25 110 28 110 19z m99 -104 c39 -80 46 -100 33 -100 -38 1
-203 46 -202 55 2 13 103 144 112 144 4 1 30 -44 57 -99z m-414 -55 c50 -14
93 -26 97 -28 4 -1 -5 -16 -21 -34 -68 -78 -103 -115 -106 -111 -6 6 -95 195
-95 202 0 4 8 5 18 2 9 -3 58 -17 107 -31z m420 -69 c15 -4 -356 -106 -388
-106 -15 0 -4 16 50 74 40 43 59 56 81 56 16 0 35 6 41 14 10 12 27 10 109
-11 53 -13 102 -25 107 -27z m-118 -82 c-3 -3 -12 -4 -19 -1 -8 3 -5 6 6 6 11
1 17 -2 13 -5z m-150 -40 c-3 -3 -12 -4 -19 -1 -8 3 -5 6 6 6 11 1 17 -2 13
-5z"/>
<path d="M4626 4751 c-3 -5 -41 -25 -83 -45 -98 -47 -157 -84 -259 -162 -99
-77 -274 -260 -274 -287 0 -17 34 -57 48 -57 7 0 146 102 165 122 10 10 29 26
44 35 24 16 24 17 7 30 -18 13 -17 15 11 38 17 14 67 50 112 81 71 49 87 55
115 50 29 -5 43 1 108 47 41 30 91 70 112 89 l36 35 -28 16 c-30 18 -105 23
-114 8z"/>
<path d="M5240 4631 c-107 -25 -207 -80 -284 -158 -35 -36 -72 -81 -82 -101
-11 -21 -22 -38 -26 -40 -5 -2 -8 -13 -7 -25 0 -21 1 -21 9 -2 6 14 8 -3 8
-50 l-1 -70 -10 48 c-6 26 -14 47 -19 47 -4 0 -8 -36 -8 -80 0 -47 4 -80 10
-80 6 0 10 -6 10 -14 0 -24 33 -77 75 -124 54 -60 134 -104 245 -137 84 -25
104 -27 216 -23 78 2 128 8 136 16 7 7 20 12 30 12 28 0 98 31 92 41 -3 5 3 9
13 9 57 0 212 137 262 230 63 117 36 247 -75 358 -137 137 -373 194 -594 143z
m142 -111 l-1 -95 -50 1 c-80 3 -121 13 -121 31 0 19 147 166 161 161 7 -2 11
-42 11 -98z m120 50 c54 -48 105 -116 96 -126 -7 -6 -116 -24 -150 -24 l-28 0
0 100 c0 75 3 100 13 100 7 0 38 -23 69 -50z m-248 -2 c-23 -24 -51 -58 -64
-76 -25 -37 -42 -38 -117 -7 l-38 16 55 35 c50 32 154 72 190 73 8 1 -3 -17
-26 -41z m357 17 c75 -26 149 -68 149 -85 0 -5 -25 -17 -56 -27 l-57 -18 -26
35 c-14 19 -43 52 -63 74 -55 56 -54 57 53 21z m-479 -152 c18 -5 17 -25 -3
-81 -5 -13 -9 -37 -9 -53 l0 -30 -102 3 -103 3 3 33 c3 39 30 97 67 140 l26
31 52 -21 c29 -11 60 -23 69 -25z m691 20 c29 -31 77 -133 77 -164 0 -19 -6
-20 -102 -17 l-102 3 -12 55 c-7 30 -16 65 -19 78 -5 15 -3 22 6 22 8 0 37 11
64 24 28 14 53 25 56 25 3 1 17 -11 32 -26z m-483 -58 l45 -5 -3 -60 -4 -60
-109 0 -109 0 0 32 c0 34 20 99 33 109 4 3 29 2 55 -2 26 -5 67 -11 92 -14z
m288 0 c6 -13 14 -47 18 -75 l7 -51 -114 3 -114 3 -3 57 -3 57 48 6 c39 5 98
15 144 24 3 0 11 -10 17 -24z m-246 -210 c-4 -61 0 -58 -123 -70 l-66 -6 -16
43 c-16 42 -22 80 -13 89 2 2 53 3 113 1 l108 -3 -3 -54z m508 8 c-19 -58 -45
-105 -72 -131 l-25 -22 -49 20 c-27 12 -59 25 -72 30 -21 9 -22 12 -9 42 8 18
17 50 21 70 l7 37 97 3 c53 2 101 0 106 -4 4 -3 3 -23 -4 -45z m-761 -10 c7
-32 17 -63 22 -70 12 -14 9 -16 -74 -46 l-67 -25 -26 31 c-31 37 -59 92 -69
135 l-7 32 104 0 103 0 14 -57z m516 25 c-4 -18 -11 -48 -17 -66 l-10 -34 -62
7 c-33 3 -78 8 -98 11 l-38 6 0 54 0 54 116 0 116 0 -7 -32z m-263 -200 c0
-49 -3 -88 -6 -88 -3 0 -9 0 -14 0 -18 0 -158 147 -149 156 6 6 126 22 150 20
17 -1 19 -11 19 -88z m176 76 c17 -3 32 -11 32 -17 0 -18 -107 -125 -142 -143
l-28 -15 0 89 c0 49 3 92 7 96 6 6 46 3 131 -10z m-254 -160 c20 -15 18 -16
-29 -9 -87 12 -247 87 -227 107 4 4 32 16 62 26 l55 19 59 -64 c32 -35 68 -70
80 -79z m404 120 c28 -10 51 -23 49 -29 -10 -31 -135 -88 -221 -100 l-47 -7
56 53 c31 29 64 66 73 81 9 16 21 27 27 24 5 -2 34 -12 63 -22z m-250 -191
c-26 -2 -71 -2 -100 0 -29 2 -8 3 47 3 55 0 79 -1 53 -3z"/>
<path d="M5822 4600 l-23 -19 43 -29 c37 -26 229 -174 279 -216 9 -8 41 -21
72 -30 30 -9 67 -23 83 -31 16 -8 36 -15 44 -15 8 0 35 -9 59 -20 49 -23 60
-21 37 7 -8 10 -23 28 -33 40 -10 12 -57 35 -107 53 -73 25 -111 47 -205 118
-64 47 -118 89 -121 93 -9 10 -93 69 -99 69 -3 -1 -16 -9 -29 -20z"/>
<path d="M6770 4580 c0 -5 9 -10 21 -10 11 0 17 5 14 10 -3 6 -13 10 -21 10
-8 0 -14 -4 -14 -10z"/>
<path d="M1477 4573 c-13 -12 -7 -23 12 -23 10 0 21 7 25 15 5 15 -24 22 -37
8z"/>
<path d="M4576 4535 c-20 -15 -20 -15 0 -30 23 -17 55 -19 88 -4 l25 12 -37
18 c-43 23 -51 23 -76 4z"/>
<path d="M3765 4460 c-33 -10 -121 -35 -195 -55 -74 -20 -162 -45 -195 -55
-33 -10 -79 -23 -103 -29 -78 -22 -301 -206 -341 -283 -12 -24 -11 -29 8 -56
34 -48 88 -64 211 -61 59 1 113 -1 121 -6 8 -4 11 -5 7 0 -12 13 12 35 38 35
18 0 24 -6 24 -21 0 -19 4 -21 31 -15 17 3 38 6 45 6 8 0 19 11 24 25 7 19 17
25 39 25 16 0 32 -6 34 -12 3 -8 6 -6 6 4 1 22 46 34 66 18 12 -10 15 -9 15 4
0 12 9 16 35 16 40 0 136 19 150 30 6 4 45 16 88 25 42 9 80 21 83 26 3 5 0 9
-7 9 -8 0 -8 4 1 15 7 8 20 15 29 15 31 0 47 18 35 37 -6 10 -39 72 -74 138
-87 166 -95 178 -105 181 -6 2 -37 -6 -70 -16z m81 -113 c15 -29 42 -81 61
-116 18 -35 32 -65 30 -68 -2 -2 -69 -22 -148 -44 -79 -22 -191 -54 -248 -70
-58 -16 -108 -26 -112 -22 -3 5 -27 47 -53 94 -67 127 -76 143 -76 150 0 4 84
30 188 59 103 28 214 60 247 70 70 21 73 19 111 -53z m-731 -279 c19 -13 35
-29 35 -35 0 -21 -46 -26 -78 -9 -36 19 -46 32 -38 51 8 22 41 18 81 -7z m-40
-84 c37 -7 45 -18 19 -28 -49 -19 -134 19 -134 60 0 34 11 35 46 4 19 -16 49
-32 69 -36z m345 -39 c0 -8 -9 -15 -20 -15 -11 0 -23 0 -27 -1 -5 0 -9 7 -11
15 -3 12 5 16 27 16 21 0 31 -5 31 -15z"/>
<path d="M4364 4426 c-11 -27 1 -51 30 -61 22 -7 30 -7 33 3 3 6 11 12 19 12
16 0 19 16 4 25 -5 3 -10 2 -10 -3 0 -13 -27 -23 -45 -16 -20 8 -19 34 1 34 8
0 12 5 9 10 -9 15 -35 12 -41 -4z"/>
<path d="M4490 4320 c-14 -5 -42 -11 -62 -15 -24 -4 -38 -11 -38 -20 0 -19 27
-19 45 -1 8 7 32 16 54 20 22 3 43 11 46 16 7 12 -10 12 -45 0z"/>
<path d="M6435 4311 c-6 -11 32 -41 52 -41 16 0 17 22 1 38 -14 14 -44 16 -53
3z"/>
<path d="M4483 4233 c-65 -11 -93 -19 -93 -29 0 -8 8 -14 18 -14 40 1 157 31
171 45 8 8 11 14 6 14 -6 -1 -52 -8 -102 -16z"/>
<path d="M6872 4233 c3 -17 25 -18 303 -18 260 0 300 2 300 15 0 13 -42 15
-303 18 -285 2 -303 1 -300 -15z"/>
<path d="M4102 4192 l-24 -18 26 -17 c32 -21 49 -21 89 0 32 17 32 17 7 21
-13 2 -33 10 -44 18 -25 17 -26 17 -54 -4z"/>
<path d="M6636 4192 c-2 -4 -7 -25 -11 -47 -14 -87 -17 -95 -33 -95 -8 0 -23
6 -31 13 -29 24 -123 57 -195 68 -132 21 -276 -5 -385 -68 -57 -32 -179 -155
-187 -188 -3 -14 -10 -25 -15 -25 -5 0 -9 -13 -9 -29 0 -17 -4 -33 -10 -36 -5
-3 -10 -21 -10 -40 0 -19 5 -37 10 -40 6 -3 10 -14 10 -25 0 -34 45 -102 97
-149 73 -65 171 -103 288 -110 89 -6 90 -6 93 -34 2 -15 7 -25 12 -22 5 3 46
10 92 15 131 16 130 15 123 53 -6 31 -3 35 47 69 122 85 208 200 208 278 0 37
8 37 67 0 26 -16 53 -30 61 -30 11 0 13 -8 9 -30 -4 -16 -5 -30 -2 -30 4 0 45
88 45 96 0 2 -18 12 -41 23 -87 42 -144 98 -199 196 -19 32 -23 56 -23 118 -1
77 -2 84 -11 69z m-201 -172 c93 -42 165 -117 165 -172 0 -10 5 -18 10 -18 6
0 10 -11 10 -24 0 -14 -4 -28 -10 -31 -5 -3 -10 -17 -10 -31 0 -13 -4 -24 -10
-24 -5 0 -10 -7 -10 -15 0 -23 -63 -77 -127 -110 -53 -27 -68 -30 -183 -33
-111 -3 -131 -1 -175 18 -67 29 -131 83 -156 133 -32 61 -24 147 19 209 38 55
93 92 127 86 13 -3 22 -2 20 2 -5 7 29 24 70 34 11 3 63 4 115 2 73 -2 107 -8
145 -26z"/>
<path d="M6120 3992 c0 -11 39 -47 44 -41 2 2 -7 14 -20 27 -13 12 -24 19 -24
14z"/>
<path d="M6191 3909 c-1 -8 6 -24 14 -35 8 -10 15 -29 15 -42 0 -13 4 -21 9
-17 10 6 -6 65 -19 75 -4 3 -10 12 -13 20 -5 13 -6 13 -6 -1z"/>
<path d="M6243 3740 c0 -41 2 -58 4 -37 2 20 2 54 0 75 -2 20 -4 3 -4 -38z"/>
<path d="M6220 3648 c0 -13 -7 -32 -15 -42 -19 -25 -20 -42 -2 -24 20 19 38
76 26 83 -5 4 -9 -4 -9 -17z"/>
<path d="M1946 4175 c-3 -8 -16 -15 -29 -15 -31 0 -40 -10 -26 -27 9 -10 8
-18 -5 -31 -21 -24 -20 -29 5 -35 11 -3 23 -15 26 -26 3 -12 8 -21 12 -21 103
-7 116 -6 129 6 7 8 22 14 32 14 24 0 37 20 20 30 -9 6 -7 13 9 29 l21 21 -25
10 c-14 5 -29 19 -33 31 -7 17 -18 21 -69 24 -47 3 -62 1 -67 -10z m108 -57
c18 -25 8 -44 -32 -59 -30 -12 -82 14 -82 41 0 42 88 56 114 18z"/>
<path d="M7148 4143 c-238 -3 -278 -5 -278 -18 0 -13 41 -15 299 -15 209 0
302 3 307 11 8 13 -14 30 -36 27 -8 -2 -140 -4 -292 -5z"/>
<path d="M7137 4033 c-208 -3 -268 -6 -264 -16 4 -14 573 -22 596 -8 22 14 3
31 -32 29 -18 -2 -153 -4 -300 -5z"/>
<path d="M2433 4000 c-57 -23 -223 -163 -223 -189 0 -4 14 -17 30 -29 17 -13
30 -18 30 -12 0 5 -4 10 -10 10 -5 0 -10 9 -10 20 0 11 5 20 11 20 16 0 199
-139 199 -151 0 -7 -12 -9 -32 -7 l-33 5 25 -16 c71 -47 97 -83 68 -94 -8 -3
-6 -6 5 -6 10 -1 17 6 17 18 0 20 32 37 50 26 17 -11 11 -35 -9 -35 -23 0 -36
-16 -21 -25 5 -3 10 -12 10 -19 0 -7 -88 -75 -195 -151 -107 -77 -195 -144
-195 -150 0 -5 -13 -19 -29 -29 l-29 -20 23 -18 c13 -10 34 -18 47 -18 22 1
22 1 4 15 -17 13 -17 15 -2 31 16 15 18 15 36 -1 19 -17 21 -17 55 9 19 15 35
31 35 35 0 22 34 20 57 -3 14 -14 34 -28 45 -32 34 -10 84 5 110 35 14 15 36
35 48 44 29 20 30 65 1 88 -28 23 -27 31 12 54 38 23 144 103 170 128 18 18
19 18 42 -7 20 -22 33 -26 77 -26 49 0 56 4 106 49 28 27 52 56 52 64 0 9 -11
29 -25 45 l-25 30 33 20 c18 12 42 32 54 45 11 14 29 30 40 36 17 10 16 13
-15 41 -18 16 -42 30 -53 30 -11 0 -46 18 -77 39 -55 39 -60 40 -137 39 -59
-1 -96 5 -140 21 -61 22 -177 52 -198 50 -7 0 -22 -4 -34 -9z m168 -61 c57
-17 110 -32 117 -35 6 -2 12 -8 12 -13 0 -15 -48 -25 -63 -13 -6 5 -46 17 -87
27 -41 10 -79 21 -84 26 -6 5 -20 9 -33 9 -16 0 -21 4 -17 15 9 22 38 19 155
-16z m-63 -55 c40 -13 81 -24 92 -24 30 0 34 -19 8 -40 -57 -48 -148 -101
-160 -94 -43 26 -158 116 -158 124 0 5 19 23 43 39 47 34 54 34 175 -5z m282
-237 c0 -7 -5 -18 -12 -25 -16 -16 -38 -15 -38 1 0 7 5 18 12 25 16 16 38 15
38 -1z m128 -9 c32 -32 -17 -71 -63 -50 -42 19 -25 62 25 62 14 0 31 -5 38
-12z m-554 -286 c8 -13 -23 -52 -40 -52 -20 0 -18 30 4 46 20 16 29 17 36 6z
m124 -29 c15 -30 3 -43 -39 -43 -43 0 -60 20 -39 45 17 21 67 19 78 -2z"/>
<path d="M3897 3979 c-9 -5 -22 -7 -27 -4 -15 10 -13 -378 2 -393 9 -9 122
-12 446 -12 419 0 472 3 472 30 0 6 -158 10 -424 10 -520 0 -476 -14 -476 156
l0 114 478 2 477 3 5 53 6 52 -471 0 c-302 0 -476 -4 -488 -11z"/>
<path d="M7259 3835 c-72 -71 -103 -95 -122 -95 -21 0 -107 -35 -107 -44 0 -1
15 0 34 2 18 2 36 0 40 -6 3 -5 -105 -117 -241 -248 l-246 -239 -66 -12 c-36
-6 -99 -23 -140 -37 -41 -14 -76 -26 -78 -26 -2 0 -3 9 -3 19 0 11 -4 23 -10
26 -5 3 -10 16 -10 29 0 12 -4 26 -9 32 -5 5 -11 20 -13 34 -2 18 -10 26 -29
28 l-26 3 10 -55 c6 -31 14 -56 19 -56 4 0 8 -9 8 -20 0 -11 6 -30 13 -41 11
-19 7 -25 -38 -65 -27 -24 -53 -43 -56 -41 -3 1 -39 40 -80 87 -108 123 -95
114 -130 100 -16 -7 -32 -17 -35 -22 -5 -8 48 -74 136 -171 63 -70 64 -81 4
-112 -47 -24 -56 -56 -22 -79 29 -20 67 -20 96 0 25 17 28 40 8 63 -9 11 -11
23 -5 39 6 17 16 22 44 22 38 0 44 10 20 30 -13 11 -11 16 20 37 43 29 68 27
76 -7 17 -69 15 -68 106 -75 l85 -8 96 94 c120 118 121 119 135 120 7 0 34 4
61 8 64 11 130 -5 225 -53 94 -48 169 -123 212 -213 l32 -66 -27 -20 c-49 -36
-23 -87 44 -87 65 0 89 63 34 89 -13 6 -24 19 -24 28 0 34 -58 141 -101 186
-24 25 -78 66 -119 92 l-75 47 50 -7 c65 -9 181 -54 245 -95 61 -39 132 -116
157 -170 11 -24 25 -40 36 -40 26 0 21 21 -21 86 -101 156 -282 243 -542 262
-66 5 -122 11 -125 14 -8 8 568 571 589 576 12 3 261 -129 600 -317 71 -39
133 -71 137 -71 30 0 -3 -40 -168 -203 -104 -102 -228 -223 -277 -270 l-90
-85 40 -6 c21 -3 64 -8 94 -11 l55 -5 294 289 294 288 -179 98 c-99 54 -253
138 -344 188 -91 49 -209 114 -262 143 -146 82 -209 114 -222 114 -6 0 -54
-43 -107 -95z m-700 -677 c-1 -7 -39 -49 -85 -92 -80 -76 -85 -79 -98 -61 -8
11 -17 35 -20 54 -7 43 5 53 104 85 88 29 100 30 99 14z"/>
<path d="M4032 3824 c-22 -15 -29 -57 -14 -81 10 -16 56 -33 68 -25 5 4 9 33
9 65 0 51 -2 57 -20 57 -11 0 -31 -7 -43 -16z"/>
<path d="M1919 3709 c-10 -7 -6 -8 13 -3 15 3 32 2 39 -2 7 -4 38 -6 70 -5 47
2 62 -2 78 -18 11 -11 23 -17 25 -12 17 27 -189 64 -225 40z"/>
<path d="M5335 3626 c-88 -40 -205 -94 -260 -120 -55 -26 -146 -68 -202 -93
-57 -26 -103 -51 -102 -57 3 -26 -2 -34 -26 -40 -29 -7 -32 -18 -10 -36 12
-10 15 -36 15 -116 0 -112 -3 -104 73 -186 29 -32 107 -123 117 -136 20 -29
67 -52 105 -52 44 0 55 -10 165 -140 41 -49 105 -123 130 -150 77 -85 90 -100
90 -110 0 -5 -5 -10 -12 -10 -6 0 -4 -7 5 -18 10 -10 17 -33 17 -50 0 -26 -6
-34 -35 -48 -19 -9 -35 -19 -35 -23 0 -15 25 -31 50 -31 14 0 31 -5 38 -12 9
-9 12 -9 12 0 0 7 9 12 20 12 17 0 20 -7 20 -44 0 -42 -18 -76 -41 -76 -5 0
-9 -147 -9 -364 0 -282 -3 -365 -12 -369 -10 -3 -9 -8 2 -20 11 -11 73 -19
255 -32 132 -9 243 -19 246 -21 4 -2 12 2 18 9 17 21 -22 35 -118 41 -82 5
-100 10 -89 22 6 5 155 -8 263 -24 l50 -7 -29 -26 -28 -26 98 -8 c108 -7 365
-32 484 -45 41 -5 78 -9 83 -9 4 -1 7 -7 7 -14 0 -8 -39 -21 -107 -36 -196
-42 -528 -121 -613 -146 -25 -8 -97 -28 -160 -45 -129 -36 -170 -54 -219 -99
-19 -17 -42 -31 -51 -31 -50 0 -169 -113 -182 -173 -9 -39 6 -99 29 -119 69
-60 195 -75 281 -33 65 32 139 106 153 154 11 36 9 44 -14 83 -14 24 -37 50
-51 58 -44 23 -30 36 56 55 46 10 89 21 98 26 18 9 242 65 485 120 50 11 99
23 110 26 11 3 63 13 115 23 52 10 122 23 155 30 33 7 110 13 170 14 117 1
128 -3 273 -84 110 -63 412 -283 412 -300 0 -5 -7 -15 -15 -24 -23 -22 -19
-102 6 -137 48 -68 174 -97 264 -61 82 32 171 116 181 168 11 61 -23 117 -94
154 -35 18 -56 22 -129 20 -111 -3 -102 -5 -140 29 -18 15 -57 45 -87 66 -51
35 -55 40 -49 69 3 17 9 36 13 41 4 6 10 24 13 40 5 27 15 66 74 275 23 83 31
112 41 150 28 101 97 346 122 435 5 17 20 75 35 130 14 55 30 114 35 130 5 17
16 57 25 90 9 33 21 75 26 93 34 117 32 138 -10 128 -14 -4 -77 -9 -140 -13
l-113 -6 7 24 c17 57 52 114 79 129 22 12 30 12 33 3 3 -8 22 -13 44 -13 30 0
42 -5 54 -24 23 -34 29 -35 125 -20 47 8 93 11 103 8 23 -7 107 25 107 41 0 7
13 18 29 25 38 15 44 34 21 62 -18 22 -24 23 -147 21 -70 -1 -186 -11 -256
-21 -179 -28 -200 -45 -263 -201 -19 -48 0 -45 -394 -71 -168 -11 -321 -22
-340 -25 -19 -3 -92 -8 -163 -10 -70 -2 -132 -7 -138 -11 -6 -3 -16 0 -21 7
-7 11 -11 11 -15 2 -7 -20 -30 -15 -36 7 -8 30 -45 26 -57 -6 -12 -30 -36 -27
-33 5 2 13 -3 21 -12 21 -9 0 -15 -10 -15 -25 0 -20 -5 -25 -24 -25 -23 0 -24
3 -16 30 5 17 5 30 0 30 -5 0 -10 -12 -12 -27 -2 -17 -10 -29 -20 -31 -14 -3
-18 3 -18 27 0 42 -18 39 -26 -4 -5 -26 -11 -35 -26 -35 -17 0 -19 6 -16 38 3
33 1 37 -23 40 -24 3 -27 -1 -33 -37 -3 -22 -10 -42 -14 -45 -8 -5 -77 -10
-401 -32 l-84 -6 7 29 c3 15 10 53 15 83 6 30 19 109 31 174 32 183 43 176
-144 90 -87 -41 -162 -74 -166 -74 -4 0 -49 47 -100 105 l-92 106 21 44 c27
58 21 72 -89 198 -47 54 -91 106 -97 115 -11 14 -26 9 -139 -42 -69 -32 -128
-55 -132 -51 -4 4 -9 46 -10 94 l-4 87 174 86 c96 47 195 93 219 101 48 17
162 69 182 84 6 5 46 24 87 43 95 42 104 48 89 66 -6 8 -19 14 -28 14 -9 0
-88 -33 -176 -74z m2435 -1226 c0 -16 7 -20 35 -20 29 0 35 -4 35 -21 0 -38
-28 -48 -134 -49 -90 0 -98 2 -91 18 4 9 12 31 18 47 14 40 23 45 85 45 45 0
52 -3 52 -20z m-206 -12 c-23 -72 -34 -88 -64 -88 -29 0 -30 1 -30 48 0 27 3
52 7 55 3 4 26 7 50 7 41 0 44 -2 37 -22z m-126 -40 l-3 -53 -65 -6 c-36 -4
-101 -8 -145 -10 l-80 -4 -3 52 -3 52 43 5 c49 7 117 12 201 14 l58 2 -3 -52z
m-320 -26 l3 -52 -40 0 c-44 0 -45 1 -35 62 5 27 12 38 28 41 36 7 41 2 44
-51z m-145 16 l3 -33 8 33 c6 22 14 32 28 32 16 0 18 -5 13 -37 -10 -58 -13
-63 -35 -63 -12 0 -20 7 -21 18 0 13 -2 13 -9 -4 -7 -17 -17 -22 -47 -22 -21
0 -41 5 -45 11 -6 9 -8 9 -8 0 0 -28 -36 -12 -48 20 -15 41 -15 60 -1 52 6 -4
8 -13 5 -21 -3 -8 -1 -14 4 -14 6 0 10 11 10 25 0 18 5 25 20 25 16 0 20 -7
22 -37 l1 -38 4 37 c4 34 7 37 41 41 20 2 40 4 44 5 4 1 8 -13 11 -30z m-295
-35 c-2 -36 -7 -49 -20 -51 -14 -3 -18 4 -19 30 l-2 33 -6 -35 c-4 -23 -12
-36 -24 -38 -16 -3 -18 3 -15 45 2 37 7 49 22 51 10 2 22 -2 27 -9 6 -11 9
-10 15 4 12 33 25 16 22 -30z m72 41 c0 -31 -25 -94 -37 -94 -12 0 -14 8 -9
38 3 20 6 43 6 50 0 6 9 12 20 12 11 0 20 -3 20 -6z m-210 -28 c0 -6 5 -3 11
7 18 31 30 19 25 -25 -2 -24 -5 -46 -5 -50 -1 -5 -8 -8 -16 -8 -10 0 -15 11
-16 33 l-1 32 -12 -34 c-16 -45 -36 -52 -36 -12 0 46 17 82 35 75 8 -3 15 -11
15 -18z m-100 -13 c0 -43 -11 -73 -26 -73 -10 0 -14 13 -14 43 0 46 5 57 27
57 8 0 13 -11 13 -27z m-181 -31 c-5 -20 -9 -40 -9 -44 0 -5 -10 -8 -21 -8
-20 0 -21 4 -16 41 6 43 20 61 42 52 9 -3 10 -15 4 -41z m116 5 c-12 -71 -44
-77 -46 -9 l-2 37 -6 -40 c-4 -27 -12 -41 -23 -43 -14 -3 -18 3 -18 28 0 51
14 68 60 68 l42 1 -7 -42z m-257 -19 l3 -46 -108 -7 c-118 -7 -161 -9 -180 -6
-14 1 -18 58 -5 78 6 10 243 34 277 28 6 -1 11 -22 13 -47z m42 22 c0 -16 -4
-30 -10 -30 -5 0 -10 14 -10 30 0 17 5 30 10 30 6 0 10 -13 10 -30z m-360 -44
l0 -44 -65 -7 c-74 -8 -90 -2 -75 25 5 10 10 28 10 39 0 21 17 27 88 30 l42 1
0 -44z m1940 0 c0 -17 5 -22 23 -22 17 1 23 -5 25 -28 2 -16 -1 -33 -7 -39 -6
-6 -11 -21 -11 -32 0 -12 -3 -25 -7 -29 -4 -3 -8 -14 -9 -24 -11 -74 -18 -102
-25 -102 -5 0 -9 -12 -9 -27 -1 -56 -16 -63 -139 -63 l-111 0 0 63 c0 35 4 67
8 72 5 6 15 26 22 45 13 35 35 88 51 125 5 11 13 32 18 47 10 28 15 29 129 35
38 2 42 0 42 -21z m-235 5 c3 -5 1 -12 -5 -16 -5 -3 -10 -15 -10 -26 0 -10 -4
-19 -10 -19 -11 0 -14 53 -3 63 9 10 21 9 28 -2z m-1910 -18 c24 2 31 -2 33
-20 3 -18 -3 -22 -39 -28 -48 -8 -62 4 -45 40 6 13 13 19 16 15 3 -5 19 -8 35
-7z m1845 -71 c0 -48 -4 -92 -8 -97 -5 -6 -21 -44 -37 -85 -15 -41 -32 -81
-38 -87 -6 -9 -42 -13 -113 -13 l-104 0 0 174 0 175 53 5 c28 3 66 8 82 9 17
2 60 5 98 6 l67 1 0 -88z m-320 -107 l0 -175 -155 0 c-177 0 -176 0 -151 74 9
26 16 66 15 89 l-1 42 -13 -30 c-13 -28 -14 -24 -15 63 0 92 0 92 25 92 14 0
25 -6 25 -12 0 -9 3 -8 10 2 6 10 29 16 75 17 l66 2 -7 -52 c-3 -29 -10 -68
-14 -87 -16 -67 -22 -160 -11 -160 5 0 13 15 16 33 17 106 27 167 32 207 7 59
18 70 64 70 l39 0 0 -175z m-406 147 c2 -4 -2 -53 -11 -107 -19 -129 -20 -139
-8 -145 13 -6 29 52 46 164 8 49 19 91 26 93 8 3 11 -40 10 -161 l-1 -166
-153 0 -153 0 0 38 c0 21 5 43 11 49 6 6 12 37 14 69 1 33 1 44 -2 27 -2 -18
-9 -33 -14 -33 -6 0 -9 31 -7 77 3 67 6 78 22 81 16 3 18 -1 14 -32 -2 -20 0
-36 4 -36 4 0 8 16 8 35 0 28 4 35 20 35 12 0 20 -7 21 -17 0 -14 2 -13 9 5
16 39 40 27 40 -20 0 -49 7 -48 12 2 3 24 10 36 22 38 16 3 17 -1 12 -35 -26
-152 -32 -204 -25 -208 11 -8 16 5 24 60 5 44 13 84 31 173 4 22 18 29 28 14z
m-302 -68 c-6 -22 -13 -67 -17 -101 l-7 -63 31 0 c30 0 31 -1 31 -45 l0 -45
-155 0 -155 0 0 51 c0 35 5 55 16 63 9 7 20 42 27 91 11 70 15 80 35 83 21 3
21 1 16 -45 -3 -26 -10 -64 -15 -83 -12 -46 -11 -50 4 -50 10 0 18 29 28 92
11 73 18 94 32 96 13 3 17 -4 18 -30 l1 -33 7 30 c4 20 13 31 27 33 19 3 20 0
13 -50 -21 -136 -22 -148 -11 -148 5 0 18 44 28 98 9 53 22 100 28 104 20 13
28 -9 18 -48z m-293 -109 l0 -145 -143 0 c-122 0 -145 2 -150 16 -12 31 -7
242 7 251 10 7 63 11 254 21 l33 2 -1 -145z m-319 -10 l0 -135 -94 0 c-94 0
-118 8 -98 33 5 7 12 37 15 67 15 143 17 149 51 159 17 5 52 10 79 10 l47 1 0
-135z m-295 -65 c0 -88 -4 -135 -11 -137 -12 -4 -30 250 -18 268 3 5 11 8 17
6 8 -2 12 -45 12 -137z m99 68 c-4 -40 -10 -77 -15 -82 -5 -6 -9 -20 -9 -33 0
-16 -6 -23 -20 -23 -19 0 -20 7 -20 98 0 54 3 102 7 105 3 4 19 7 35 7 l28 0
-6 -72z m196 -333 l0 -145 -72 1 c-105 1 -174 12 -170 27 1 7 7 58 14 115 17
156 9 147 128 147 l100 0 0 -145z m320 -9 c0 -85 -3 -157 -7 -159 -17 -8 -278
17 -285 27 -10 14 -10 270 -1 279 3 4 71 7 150 7 l143 0 0 -154z m330 -17 l0
-170 -107 7 c-60 4 -128 10 -153 13 l-45 6 -3 158 -3 157 156 0 155 0 0 -171z
m330 -10 l0 -182 -92 7 c-51 3 -121 9 -155 12 l-63 6 0 169 0 169 155 0 155 0
0 -181z m340 -8 c0 -105 -3 -192 -7 -194 -9 -4 -258 11 -290 18 -23 5 -23 7
-23 185 l0 180 160 0 160 0 0 -189z m210 183 c0 -6 -7 -21 -44 -106 -9 -20
-16 -39 -16 -42 0 -3 -8 -25 -19 -49 -10 -23 -32 -73 -48 -112 -17 -42 -36
-71 -46 -73 -15 -3 -17 14 -17 192 l0 196 95 0 c52 0 95 -3 95 -6z m110 -194
l0 -200 -84 0 c-46 0 -91 3 -100 6 -16 6 -15 12 20 92 13 29 24 55 24 58 0 6
8 25 49 116 11 26 21 51 21 54 0 23 35 74 51 74 18 0 19 -11 19 -200z m232
148 c-2 -29 -8 -57 -13 -62 -5 -6 -9 -27 -9 -48 0 -21 -4 -38 -9 -38 -4 0 -11
-31 -15 -69 -3 -38 -12 -86 -18 -107 l-13 -38 -55 3 c-30 1 -58 5 -62 7 -5 3
-8 95 -8 205 l0 199 103 0 102 0 -3 -52z m-2154 -118 c4 -123 -3 -170 -23
-170 -12 0 -15 24 -15 141 0 128 2 140 18 137 15 -3 17 -18 20 -108z m509
-206 c-3 -3 -12 -4 -19 -1 -8 3 -5 6 6 6 11 1 17 -2 13 -5z m46 -1 c-7 -2 -19
-2 -25 0 -7 3 -2 5 12 5 14 0 19 -2 13 -5z m270 -9 c53 -3 97 -11 97 -16 0 -9
-97 -6 -190 7 -37 6 -49 3 -69 -14 -28 -25 -47 -15 -36 19 6 19 12 21 53 16
26 -3 91 -8 145 -12z m-838 -4 c3 -5 -1 -10 -9 -10 -9 0 -16 5 -16 10 0 6 4
10 9 10 6 0 13 -4 16 -10z m1183 -16 c71 -5 92 -10 92 -21 0 -12 -10 -14 -47
-9 -27 3 -94 8 -151 12 -56 3 -105 10 -108 15 -6 11 86 12 214 3z m-723 -13
c-6 -5 -30 -5 -55 -1 l-45 7 55 2 c32 0 50 -3 45 -8z m-459 -10 c5 -5 58 -14
117 -19 61 -5 113 -15 120 -22 10 -9 0 -11 -48 -6 -33 3 -95 8 -137 11 -68 6
-78 9 -78 26 0 20 10 25 26 10z m554 -1 c0 -13 -50 -13 -70 0 -11 7 -4 10 28
10 23 0 42 -4 42 -10z m60 0 c0 -5 -9 -10 -20 -10 -11 0 -20 5 -20 10 0 6 9
10 20 10 11 0 20 -4 20 -10z m958 -6 c26 -4 41 -11 39 -18 -3 -7 -33 -10 -88
-9 -102 2 -230 23 -222 36 6 9 180 3 271 -9z m-823 -4 c3 -5 36 -10 73 -10 43
0 63 -3 56 -10 -12 -12 -236 9 -228 22 7 12 92 10 99 -2z m1133 -16 c34 -5 52
-11 52 -20 0 -10 -15 -14 -54 -14 -97 0 -176 12 -176 26 0 15 83 19 178 8z
m-948 -14 c0 -5 -4 -10 -9 -10 -6 0 -13 5 -16 10 -3 6 1 10 9 10 9 0 16 -4 16
-10z m237 -6 c24 -3 45 -10 49 -16 5 -7 -19 -8 -77 -4 -136 11 -179 17 -179
28 0 9 101 5 207 -8z m902 0 c29 -9 -11 -34 -55 -34 -44 0 -60 11 -51 35 5 12
64 12 106 -1z m-804 -14 c3 -5 -3 -10 -14 -10 -12 0 -21 5 -21 10 0 6 6 10 14
10 8 0 18 -4 21 -10z m-514 -16 c95 -6 142 -15 129 -27 -3 -2 -72 1 -154 7
-109 8 -151 15 -154 25 -3 10 4 12 34 7 22 -3 87 -8 145 -12z m702 1 c104 -7
135 -26 40 -24 -109 2 -186 13 -191 28 -3 10 3 12 24 8 16 -3 73 -9 127 -12z
m-374 -35 c69 -6 127 -13 130 -15 13 -14 -18 -16 -116 -6 -184 18 -210 23
-188 32 11 4 27 6 35 4 8 -3 71 -9 139 -15z m795 0 c14 -14 -5 -32 -28 -26
-11 4 -55 9 -96 12 -82 7 -85 8 -76 23 8 12 185 4 200 -9z m161 10 c9 -15 -30
-52 -51 -48 -26 5 -30 28 -5 28 12 0 24 7 27 15 7 17 20 20 29 5z m-100 -30
c-3 -5 -12 -10 -20 -10 -8 0 -17 5 -20 10 -4 6 5 10 20 10 15 0 24 -4 20 -10z
m-1751 -482 c30 -13 60 -54 47 -63 -6 -3 -21 5 -34 17 -14 13 -35 31 -48 40
-19 14 -21 17 -7 18 9 0 28 -5 42 -12z m2241 -2 c34 -15 61 -49 50 -66 -3 -5
-19 3 -36 19 -16 16 -45 32 -64 35 -19 4 -35 11 -35 16 0 15 46 12 85 -4z
m-2235 -125 c0 -16 -6 -33 -12 -39 -18 -15 -85 -25 -91 -15 -12 19 5 48 36 64
51 26 67 23 67 -10z m2243 3 c7 -38 -23 -64 -73 -64 -37 0 -39 2 -31 23 6 16
77 65 97 67 1 0 4 -12 7 -26z m-2433 6 c0 -5 -4 -10 -10 -10 -5 0 -10 5 -10
10 0 6 5 10 10 10 6 0 10 -4 10 -10z m-57 -62 c17 -13 49 -30 72 -39 39 -17
39 -17 14 -24 -35 -9 -129 45 -129 74 0 16 8 14 43 -11z m2356 -70 c2 -13 -39
-9 -74 7 -36 18 -75 51 -75 64 0 11 148 -61 149 -71z"/>
<path d="M6922 2320 c0 -14 2 -19 5 -12 2 6 2 18 0 25 -3 6 -5 1 -5 -13z"/>
<path d="M6943 2145 c0 -27 2 -38 4 -22 2 15 2 37 0 50 -2 12 -4 0 -4 -28z"/>
<path d="M6840 2160 c-8 -37 -7 -71 2 -62 5 5 8 25 5 43 -2 19 -5 27 -7 19z"/>
<path d="M6892 2115 c0 -16 2 -22 5 -12 2 9 2 23 0 30 -3 6 -5 -1 -5 -18z"/>
<path d="M6921 2038 c0 -33 2 -38 9 -23 12 28 12 65 0 65 -5 0 -10 -19 -9 -42z"/>
<path d="M6872 2015 c0 -16 2 -22 5 -12 2 9 2 23 0 30 -3 6 -5 -1 -5 -18z"/>
<path d="M6906 1957 c-5 -15 -6 -31 -2 -34 11 -11 18 5 14 34 l-4 28 -8 -28z"/>
<path d="M6547 2117 c-4 -10 -7 -35 -6 -55 l1 -37 9 40 c11 45 8 82 -4 52z"/>
<path d="M6598 2087 c-5 -10 -8 -33 -8 -50 1 -27 2 -29 11 -14 6 9 9 32 7 50
-2 25 -5 28 -10 14z"/>
<path d="M6526 1997 c-5 -15 -6 -31 -2 -34 11 -11 18 5 14 34 l-4 28 -8 -28z"/>
<path d="M6582 1975 c0 -16 2 -22 5 -12 2 9 2 23 0 30 -3 6 -5 -1 -5 -18z"/>
<path d="M6288 2080 c-4 -14 -8 -38 -8 -55 1 -25 2 -27 11 -12 6 9 9 34 7 55
-3 33 -4 35 -10 12z"/>
<path d="M1885 3680 c-3 -6 1 -7 9 -4 18 7 21 14 7 14 -6 0 -13 -4 -16 -10z"/>
<path d="M6847 3673 c-4 -3 -7 -11 -7 -17 0 -6 5 -5 12 2 6 6 9 14 7 17 -3 3
-9 2 -12 -2z"/>
<path d="M1860 3662 c0 -7 6 -15 14 -18 11 -4 12 -11 3 -35 -22 -58 43 -119
127 -119 40 0 160 29 152 37 -2 2 -28 -3 -57 -11 -85 -25 -158 -18 -195 18
-18 18 -19 96 -1 96 6 0 3 6 -8 12 -11 6 -23 16 -27 22 -5 7 -8 7 -8 -2z"/>
<path d="M6914 3634 c-18 -14 -18 -15 4 -4 12 6 22 13 22 15 0 8 -5 6 -26 -11z"/>
<path d="M6819 3614 c-5 -15 -12 -31 -15 -36 -3 -4 10 0 29 9 29 15 31 19 15
21 -12 2 -17 9 -14 18 3 8 3 14 0 14 -2 0 -9 -12 -15 -26z"/>
<path d="M2100 3618 c0 -4 -17 -5 -37 -3 -45 4 -88 -20 -63 -35 8 -5 22 -9 30
-9 10 1 9 3 -3 6 -22 6 -17 27 6 31 10 2 17 -3 17 -12 0 -13 4 -13 31 1 40 20
175 15 189 -7 6 -9 10 -10 10 -3 0 6 -6 15 -12 20 -16 10 -168 20 -168 11z"/>
<path d="M2290 3571 c0 -10 19 -25 25 -20 1 2 -3 10 -11 17 -8 7 -14 8 -14 3z"/>
<path d="M2300 3525 c0 -8 5 -15 10 -15 6 0 10 7 10 15 0 8 -4 15 -10 15 -5 0
-10 -7 -10 -15z"/>
<path d="M1641 3509 l-34 -20 24 -17 c13 -9 92 -66 174 -127 83 -61 165 -121
182 -133 l32 -23 53 39 c29 21 62 44 73 50 11 6 15 12 9 12 -5 0 -25 -11 -43
-24 l-33 -25 -52 36 c-28 20 -53 39 -56 42 -9 12 -269 201 -282 206 -7 3 -28
-4 -47 -16z"/>
<path d="M2165 3500 c-4 -7 -19 -10 -36 -6 -15 3 -31 1 -34 -4 -4 -6 11 -10
34 -10 36 0 61 14 48 26 -3 3 -8 0 -12 -6z"/>
<path d="M2410 3499 c0 -5 5 -7 10 -4 6 3 10 8 10 11 0 2 -4 4 -10 4 -5 0 -10
-5 -10 -11z"/>
<path d="M2295 3490 c-8 -12 5 -60 16 -60 5 0 9 7 9 15 0 8 -4 15 -10 15 -14
0 -12 27 3 33 9 4 9 6 0 6 -6 1 -14 -3 -18 -9z"/>
<path d="M2386 3475 c-3 -9 0 -15 9 -15 16 0 20 16 6 24 -5 3 -11 -1 -15 -9z"/>
<path d="M2055 3470 c-3 -5 -2 -10 4 -10 5 0 13 5 16 10 3 6 2 10 -4 10 -5 0
-13 -4 -16 -10z"/>
<path d="M2031 3444 c0 -11 3 -14 6 -6 3 7 2 16 -1 19 -3 4 -6 -2 -5 -13z"/>
<path d="M5430 3412 c-53 -26 -101 -51 -108 -55 -15 -10 197 -257 236 -274 89
-39 222 18 222 95 0 26 -215 276 -239 279 -9 1 -59 -19 -111 -45z"/>
<path d="M2326 3424 c-18 -25 -18 -25 3 -12 12 7 21 18 21 25 0 18 -2 16 -24
-13z"/>
<path d="M2058 3408 c18 -18 194 -18 223 -1 17 10 18 12 4 7 -31 -10 -175 -13
-208 -3 -23 7 -28 6 -19 -3z"/>
<path d="M2265 3374 c-18 -16 -22 -22 -9 -15 18 9 53 42 43 41 -2 -1 -17 -12
-34 -26z"/>
<path d="M7770 3359 c-30 -22 -62 -53 -70 -67 -19 -30 -86 -92 -100 -92 -12 0
-50 -37 -84 -82 -35 -46 -27 -63 48 -103 l55 -30 38 35 c59 55 181 168 261
243 40 37 70 72 67 76 -3 5 -25 21 -49 35 -64 37 -101 34 -166 -15z"/>
<path d="M2199 3323 c-13 -16 -12 -17 4 -4 9 7 17 15 17 17 0 8 -8 3 -21 -13z"/>
<path d="M1716 3158 c-13 -19 -16 -58 -16 -224 0 -188 1 -202 20 -219 20 -18
20 -17 20 223 0 133 -2 242 -4 242 -3 0 -12 -10 -20 -22z"/>
<path d="M1427 2713 c-4 -3 -7 -20 -7 -37 0 -23 9 -37 33 -54 17 -13 64 -47
103 -75 39 -29 110 -79 157 -112 85 -59 86 -61 87 -102 0 -34 -4 -43 -17 -43
-16 0 -18 -13 -18 -137 l0 -138 -440 -5 -440 -5 -5 -30 c-3 -18 -13 -31 -25
-35 -20 -5 -20 -14 -20 -588 l0 -582 483 0 483 0 -3 -82 -3 -83 -142 -3 c-117
-2 -143 -5 -143 -17 0 -12 26 -15 142 -17 102 -2 143 -6 146 -15 3 -10 -35
-13 -167 -13 -145 0 -171 -2 -171 -15 0 -13 71 -15 581 -15 460 0 580 3 577
13 -4 9 -50 13 -177 15 -131 2 -172 5 -168 15 3 9 57 13 205 15 169 2 202 5
202 17 0 12 -29 15 -172 17 l-173 3 0 80 0 80 80 5 80 5 -50 16 c-44 14 -47
17 -27 23 32 10 113 -2 148 -22 25 -15 72 -17 352 -20 201 -2 322 1 322 7 0 5
-39 12 -87 16 -70 6 -83 10 -63 17 14 5 52 9 85 8 33 -1 77 -1 98 -1 l37 1 0
595 0 595 -475 0 -475 0 0 170 c0 94 -1 171 -2 172 -2 1 -122 4 -268 7 l-264
6 -1 34 c0 29 -7 39 -45 65 -172 120 -319 229 -324 241 -6 16 -18 19 -29 8z
m873 -427 c19 -24 8 -60 -22 -70 -39 -14 -82 3 -86 32 -5 34 15 52 58 52 21 0
43 -7 50 -14z m900 -811 l0 -445 -1107 2 -1108 3 -3 443 -2 442 1110 0 1110 0
0 -445z"/>
<path d="M1080 1810 l0 -60 1025 0 1025 0 0 60 0 60 -1025 0 -1025 0 0 -60z
m660 -5 c0 -13 -36 -15 -287 -13 -218 2 -287 6 -291 16 -3 9 59 12 287 12 253
0 291 -2 291 -15z"/>
<path d="M1812 1703 c-4 -2 -6 -41 -4 -88 l3 -85 125 0 124 0 0 84 0 85 -120
3 c-66 2 -124 2 -128 1z"/>
<path d="M2139 1699 c-6 -3 -9 -41 -7 -85 l3 -79 128 -3 127 -3 0 86 c0 47 -3
85 -7 85 -85 4 -237 4 -244 -1z"/>
<path d="M2668 1592 l-28 -3 0 -110 0 -109 135 0 135 0 0 110 c0 98 -2 110
-17 111 -62 3 -202 3 -225 1z"/>
<path d="M1413 1298 c-53 -32 -38 -88 24 -88 10 0 29 -7 41 -16 18 -13 21 -19
11 -30 -13 -16 -55 -19 -64 -4 -9 15 -47 12 -43 -2 3 -7 14 -17 26 -23 12 -5
22 -13 22 -17 0 -5 11 -8 25 -8 14 0 25 4 25 9 0 5 9 11 20 14 11 3 24 16 29
29 8 19 5 27 -15 46 -14 12 -33 22 -44 22 -29 0 -50 11 -50 25 0 19 35 28 59
16 25 -14 51 -14 51 -1 0 6 -11 15 -25 20 -14 5 -25 14 -25 20 0 16 -32 10
-67 -12z"/>
<path d="M5462 2160 c0 -14 2 -19 5 -12 2 6 2 18 0 25 -3 6 -5 1 -5 -13z"/>
<path d="M670 1785 c-10 -13 -9 -15 9 -15 11 0 21 4 21 9 0 18 -18 21 -30 6z"/>
</g>
</svg>
